<?xml version="1.0" standalone="no"?>
<!DOCTYPE svg PUBLIC "-//W3C//DTD SVG 20010904//EN"
 "http://www.w3.org/TR/2001/REC-SVG-20010904/DTD/svg10.dtd">
<svg version="1.0" xmlns="http://www.w3.org/2000/svg"
 width="211.000000pt" height="246.000000pt" viewBox="0 0 211.000000 246.000000"
 preserveAspectRatio="xMidYMid meet">

<g transform="translate(0.000000,246.000000) scale(0.100000,-0.100000)"
fill="#000000" stroke="none">
<path d="M1330 2075 c-19 -13 -39 -28 -45 -32 -5 -5 -30 -24 -55 -43 -25 -19
-47 -37 -50 -40 -3 -3 -39 -34 -80 -69 -117 -101 -280 -264 -273 -274 3 -5 0
-8 -7 -5 -8 2 -43 -26 -79 -62 -36 -37 -104 -103 -151 -147 -80 -75 -89 -81
-146 -91 -99 -17 -143 -45 -254 -156 -108 -110 -140 -150 -140 -178 0 -23 38
-32 74 -18 35 13 132 77 166 108 14 13 44 37 68 54 23 17 42 35 42 40 0 4 7 8
15 8 8 0 15 -4 15 -9 0 -5 13 -23 29 -40 25 -27 36 -31 80 -31 40 0 53 -4 57
-17 24 -77 54 -105 121 -116 17 -3 44 -14 60 -26 47 -33 76 -36 109 -8 l28 24
-22 12 c-30 16 -28 23 12 45 36 19 56 52 56 90 0 37 -24 50 -79 43 -67 -8
-126 -40 -142 -76 -7 -16 -17 -27 -21 -25 -15 10 -8 33 18 57 35 33 29 61 -15
64 -23 2 -47 16 -77 43 -44 41 -55 45 -111 41 -39 -3 -43 6 -8 19 14 5 25 15
25 23 0 11 368 386 436 444 12 10 64 58 117 106 101 93 169 145 252 192 28 16
52 30 54 32 5 4 -30 43 -38 43 -3 -1 -22 -12 -41 -25z m-902 -823 c-4 -11
-119 -113 -147 -132 -13 -8 -35 -25 -49 -37 -48 -41 -55 -24 -12 27 51 61 110
113 153 134 35 17 61 21 55 8z"/>
<path d="M1804 1605 c-74 -37 -231 -151 -329 -237 -58 -52 -191 -179 -429
-412 l-120 -116 -50 0 c-98 -1 -185 -64 -273 -198 -21 -31 -43 -62 -49 -69
-23 -23 -38 -75 -27 -92 14 -23 60 -26 91 -5 60 39 143 117 138 131 -3 8 -1
11 4 8 6 -4 19 4 29 17 17 21 27 23 104 23 l85 0 5 -40 c8 -56 58 -101 124
-111 27 -4 60 -17 76 -30 38 -32 106 -33 133 -3 18 20 18 21 0 35 -10 7 -24
15 -30 18 -6 2 0 12 14 22 49 36 71 64 68 87 -7 53 -177 19 -203 -40 -18 -41
-82 -20 -73 24 2 10 20 27 40 38 38 20 55 50 35 62 -19 12 -149 55 -185 62
l-34 6 249 246 c136 136 273 269 304 295 87 75 110 94 115 94 2 0 35 22 72 49
69 50 164 101 187 101 18 0 27 28 15 51 -6 10 -12 19 -14 19 -2 0 -34 -16 -72
-35z m-974 -852 c-34 -39 -160 -163 -165 -163 -24 0 77 132 127 168 47 32 68
29 38 -5z"/>
<path d="M1019 1195 c-37 -20 -41 -39 -15 -64 l22 -21 42 28 c30 19 42 33 40
47 -4 25 -52 31 -89 10z"/>
<path d="M1460 746 c-20 -13 -41 -31 -49 -40 -19 -22 -6 -66 20 -66 56 0 154
71 147 107 -5 29 -74 28 -118 -1z"/>
</g>
</svg>
